<svg
  width="512"
  height="512"
  viewBox="0 0 512 512"
  fill="none"
  xmlns="http://www.w3.org/2000/svg"
>
  <!-- Shield -->
  <path
    d="M256 40L416 104V256C416 344 336 416 256 456C176 416 96 344 96 256V104L256 40Z"
    fill="#0F2A44"
  />

  <!-- Inner Shield -->
  <path
    d="M256 72L384 124V252C384 320 320 380 256 412C192 380 128 320 128 252V124L256 72Z"
    fill="#0B0F14"
  />

  <!-- Resume Paper -->
  <rect
    x="186"
    y="156"
    width="140"
    height="180"
    rx="10"
    fill="#F9FAFB"
  />

  <!-- Resume Lines -->
  <rect x="206" y="182" width="100" height="10" rx="5" fill="#4B5563"/>
  <rect x="206" y="206" width="80" height="10" rx="5" fill="#4B5563"/>
  <rect x="206" y="230" width="90" height="10" rx="5" fill="#4B5563"/>
  <rect x="206" y="254" width="70" height="10" rx="5" fill="#4B5563"/>

  <!-- Check Mark -->
  <path
    d="M220 298L244 322L292 272"
    stroke="#22C55E"
    stroke-width="14"
    stroke-linecap="round"
    stroke-linejoin="round"
  />
</svg>
